<svg width="19" height="20" viewBox="0 0 19 20" fill="none" xmlns="http://www.w3.org/2000/svg">
<path d="M9.49967 13.1663C11.2486 13.1663 12.6663 11.7486 12.6663 9.99967C12.6663 8.25077 11.2486 6.83301 9.49967 6.83301C7.75077 6.83301 6.33301 8.25077 6.33301 9.99967C6.33301 11.7486 7.75077 13.1663 9.49967 13.1663Z" fill="white"/>
<path d="M13.4575 0.5H5.54087C2.48583 0.5 0 2.98663 0 6.04246V13.9591C0 17.0142 2.48663 19.5 5.54246 19.5H13.4591C16.5142 19.5 19 17.0134 19 13.9575V6.04087C19 2.98583 16.5134 0.5 13.4575 0.5ZM9.5 14.75C6.88038 14.75 4.75 12.6196 4.75 10C4.75 7.38038 6.88038 5.25 9.5 5.25C12.1196 5.25 14.25 7.38038 14.25 10C14.25 12.6196 12.1196 14.75 9.5 14.75ZM15.0417 5.25C14.6047 5.25 14.25 4.89533 14.25 4.45833C14.25 4.02133 14.6047 3.66667 15.0417 3.66667C15.4787 3.66667 15.8333 4.02133 15.8333 4.45833C15.8333 4.89533 15.4787 5.25 15.0417 5.25Z" fill="white"/>
</svg>
