<svg width="20" height="20" viewBox="0 0 20 20" fill="none" xmlns="http://www.w3.org/2000/svg">
<path d="M4.3208 19.9167H0.0708008V5.75H4.3208V19.9167ZM19.9041 19.9167H15.6541V12.3488C15.6541 10.3768 14.9515 9.39508 13.5589 9.39508C12.4553 9.39508 11.7555 9.94475 11.4041 11.0455C11.4041 12.8333 11.4041 19.9167 11.4041 19.9167H7.15413C7.15413 19.9167 7.2108 7.16667 7.15413 5.75H10.5088L10.7681 8.58333H10.8559C11.7271 7.16667 13.1197 6.20617 15.0294 6.20617C16.4815 6.20617 17.6559 6.60992 18.5526 7.62425C19.4551 8.64 19.9041 10.0028 19.9041 11.9167V19.9167Z" fill="white"/>
<path d="M2.19583 4.3335C3.40856 4.3335 4.39167 3.3821 4.39167 2.2085C4.39167 1.03489 3.40856 0.0834961 2.19583 0.0834961C0.983108 0.0834961 0 1.03489 0 2.2085C0 3.3821 0.983108 4.3335 2.19583 4.3335Z" fill="white"/>
</svg>
