<svg width="15" height="20" viewBox="0 0 15 20" fill="none" xmlns="http://www.w3.org/2000/svg">
<g clip-path="url(#clip0_33_637)">
<path d="M7.5 0C3.3582 0 0 3.3582 0 7.5C0 10.5238 1.05352 11.3684 6.73047 19.5977C7.10277 20.1355 7.89883 20.1355 8.27109 19.5977C13.9453 11.3672 15 10.5234 15 7.5C15 3.3582 11.6406 0 7.5 0ZM7.5 10.5898C5.77617 10.5898 4.375 9.18828 4.375 7.46484C4.375 5.74141 5.77734 4.33984 7.5 4.33984C9.22266 4.33984 10.625 5.74141 10.625 7.46484C10.625 9.18828 9.22266 10.5898 7.5 10.5898Z" fill="white"/>
</g>
<defs>
<clipPath id="clip0_33_637">
<rect width="15" height="20" fill="white"/>
</clipPath>
</defs>
</svg>
