<svg width="24" height="24" viewBox="0 0 24 24" fill="none" xmlns="http://www.w3.org/2000/svg">
<path d="M19.4953 15.7268C18.8109 15.0236 16.8656 13.7064 15.5906 13.7064C15.2953 13.7064 15.0375 13.7721 14.8266 13.908C14.2031 14.3064 13.7062 14.6158 13.4672 14.6158C13.3359 14.6158 13.1953 14.4986 12.8859 14.2314L12.8344 14.1846C11.9766 13.4393 11.7937 13.2471 11.4609 12.9002L11.3766 12.8111C11.3156 12.7502 11.2641 12.6939 11.2125 12.6424C10.9219 12.3424 10.7109 12.1268 9.96562 11.283L9.9328 11.2455C9.57655 10.8424 9.34218 10.5799 9.32812 10.3877C9.31405 10.2002 9.47812 9.89551 9.89531 9.32832C10.4016 8.64395 10.4203 7.8002 9.95624 6.82051C9.58593 6.04707 8.98124 5.30645 8.44687 4.65488L8.39999 4.59863C7.94062 4.03613 7.40624 3.75488 6.81093 3.75488C6.14999 3.75488 5.60155 4.11113 5.31093 4.29863C5.28749 4.3127 5.26405 4.33145 5.24062 4.34551C4.58905 4.75801 4.11562 5.3252 3.93749 5.90176C3.6703 6.76895 3.49218 7.89395 4.77187 10.233C5.87812 12.258 6.88124 13.6174 8.47499 15.2533C9.97499 16.7908 10.6406 17.2877 12.1312 18.3658C13.7906 19.5658 15.3844 20.2549 16.5 20.2549C17.5359 20.2549 18.3516 20.2549 19.5141 18.8533C20.7328 17.3814 20.2266 16.4814 19.4953 15.7268Z" fill="white"/>
</svg>
