<svg width="21" height="18" viewBox="0 0 21 18" fill="none" xmlns="http://www.w3.org/2000/svg">
<path d="M21 2.51236C20.228 2.8542 19.3972 3.08478 18.5254 3.18797C19.4155 2.65717 20.098 1.81638 20.4198 0.813384C19.5873 1.30554 18.6657 1.66266 17.6839 1.85545C16.8983 1.02146 15.7785 0.5 14.5392 0.5C12.1602 0.5 10.2312 2.42149 10.2312 4.79183C10.2312 5.12772 10.2692 5.45511 10.3429 5.76977C6.76213 5.59057 3.58718 3.88225 1.46215 1.28558C1.09129 1.91914 0.878997 2.65632 0.878997 3.4436C0.878997 4.93238 1.63949 6.24622 2.79557 7.01566C2.08964 6.99316 1.42507 6.79994 0.844041 6.47849C0.843615 6.49633 0.843615 6.51459 0.843615 6.53285C0.843615 8.61188 2.32879 10.3461 4.29992 10.741C3.93843 10.8387 3.55776 10.8913 3.16473 10.8913C2.88679 10.8913 2.61695 10.8646 2.35394 10.8141C2.90256 12.519 4.49345 13.7602 6.37848 13.7946C4.90396 14.9458 3.04665 15.632 1.02777 15.632C0.680348 15.632 0.33719 15.6116 0 15.5717C1.90719 16.79 4.17161 17.5 6.60441 17.5C14.5294 17.5 18.8626 10.9606 18.8626 5.28908C18.8626 5.10309 18.8588 4.91752 18.8507 4.73323C19.6922 4.12939 20.4228 3.37311 21 2.51236Z" fill="white"/>
</svg>
