<svg width="123" height="123" viewBox="0 0 123 123" fill="none" xmlns="http://www.w3.org/2000/svg">
<path d="M37.3136 43.5051C37.2484 43.572 37.1697 43.6059 37.0773 43.6071C36.9849 43.6082 36.9053 43.5762 36.8385 43.511L36.097 42.7875C36.0235 42.7158 35.9862 42.6338 35.985 42.5414C35.9839 42.449 36.0159 42.3694 36.0811 42.3026L36.4428 41.9318C36.6318 41.7381 36.7546 41.5319 36.8113 41.3134C36.8613 41.0884 36.8548 40.8277 36.7917 40.5315C36.722 40.2288 36.6022 39.8771 36.4322 39.4766L33.9404 33.3096C33.8931 33.2243 33.8789 33.1453 33.8978 33.0725C33.9166 32.9864 33.9553 32.9134 34.0139 32.8532L34.9231 31.9212C34.9752 31.8678 35.0409 31.8406 35.1201 31.8396C35.2058 31.832 35.2753 31.8542 35.3288 31.9063C35.3622 31.9389 35.389 31.9716 35.4092 32.0044C35.4294 32.0371 35.4463 32.0732 35.46 32.1126L38.0946 38.6145C38.2991 39.14 38.4599 39.6034 38.5771 40.0045C38.6876 40.3992 38.7416 40.7649 38.7392 41.1015C38.7301 41.4316 38.6483 41.7561 38.4938 42.0748C38.3392 42.3803 38.099 42.7001 37.7731 43.0341L37.3136 43.5051ZM37.0752 40.2409L29.5248 38.0966C29.4652 38.0775 29.422 38.0549 29.3953 38.0289C29.3351 37.9702 29.3079 37.8979 29.3134 37.8121C29.3122 37.7197 29.3377 37.6467 29.3899 37.5933L30.3479 36.6112C30.4066 36.5511 30.4722 36.5173 30.5447 36.5098C30.617 36.4891 30.6996 36.498 30.7925 36.5364L36.406 38.1601L37.0752 40.2409Z" fill="white"/>
<path d="M46.6939 35.6027C46.1605 35.8715 45.6789 36.0357 45.2492 36.0955C44.8278 36.151 44.4604 36.1375 44.1471 36.055C43.8422 35.9683 43.5872 35.8459 43.3822 35.6879C43.1813 35.5174 43.0285 35.3488 42.9236 35.1821C42.8858 35.1071 42.8814 35.0362 42.9105 34.9693C42.9395 34.9024 42.9832 34.8543 43.0415 34.8249L44.0667 34.3083C44.15 34.2663 44.2209 34.2515 44.2794 34.2639C44.3462 34.272 44.4152 34.3052 44.4863 34.3634C44.6957 34.5715 44.938 34.6688 45.2135 34.6555C45.4972 34.6379 45.81 34.5431 46.1517 34.3709C46.3851 34.2533 46.5788 34.1191 46.7327 33.9684C46.8825 33.8093 46.9759 33.6421 47.0129 33.4666C47.0458 33.2829 47.0139 33.0951 46.9173 32.9034C46.7787 32.6283 46.5946 32.4598 46.3648 32.3979C46.1309 32.3277 45.8347 32.3828 45.4763 32.5634L44.7887 32.9099C44.7053 32.9519 44.626 32.9605 44.5508 32.9356C44.4756 32.9108 44.417 32.8567 44.375 32.7734L44.1105 32.2483C44.0727 32.1732 44.0662 32.0981 44.091 32.0229C44.1116 31.9394 44.1636 31.8766 44.247 31.8346L44.8846 31.5133C45.1846 31.3621 45.3824 31.1946 45.4778 31.0106C45.569 30.8183 45.5538 30.6013 45.432 30.3596C45.3606 30.2179 45.2559 30.1034 45.1179 30.0162C44.984 29.9164 44.8169 29.8647 44.6166 29.8612C44.4162 29.8576 44.1743 29.9272 43.891 30.07C43.4992 30.2674 43.2515 30.4706 43.1478 30.6796C43.0441 30.8886 43.0177 31.1371 43.0687 31.4249C43.0731 31.5168 43.0588 31.5919 43.0255 31.6505C43.0007 31.7048 42.9424 31.7551 42.8507 31.8013L41.863 32.2989C41.7963 32.3325 41.7275 32.3411 41.6565 32.3246C41.5938 32.3039 41.5436 32.2561 41.5058 32.181C41.4091 31.9476 41.354 31.6931 41.3407 31.4177C41.3315 31.1297 41.3869 30.8352 41.507 30.5343C41.6355 30.2292 41.8433 29.9364 42.1304 29.6558C42.4134 29.367 42.8007 29.0986 43.2925 28.8509C43.9593 28.5149 44.5347 28.3399 45.0188 28.3259C45.503 28.3119 45.8998 28.4046 46.2092 28.6041C46.5228 28.7909 46.7552 29.0344 46.9064 29.3345C47.0618 29.6429 47.1378 29.9391 47.1345 30.2229C47.1395 30.5026 47.0277 30.7888 46.799 31.0817C47.2455 31.0345 47.6131 31.121 47.9017 31.3413C48.1904 31.5617 48.4271 31.8448 48.6118 32.1907C48.8218 32.6075 48.8794 33.0227 48.7846 33.4362C48.6857 33.8414 48.4594 34.2324 48.1058 34.6091C47.748 34.9775 47.2773 35.3087 46.6939 35.6027Z" fill="white"/>
<path d="M52.822 32.4621C52.7296 32.4753 52.6465 32.4542 52.5726 32.3987C52.4987 32.3433 52.4551 32.2694 52.4419 32.177L51.5085 25.635C51.4954 25.5426 51.5165 25.4594 51.5719 25.3855C51.6274 25.3116 51.7013 25.2681 51.7937 25.2549L52.944 25.0907C53.0456 25.0762 53.1288 25.0974 53.1935 25.1541C53.2674 25.2096 53.3109 25.2835 53.3241 25.3759L53.6781 27.8569L56.8102 27.4099L56.4563 24.929C56.4431 24.8366 56.4642 24.7534 56.5196 24.6795C56.5751 24.6056 56.649 24.562 56.7414 24.5489L57.8917 24.3847C57.9841 24.3715 58.0673 24.3927 58.1412 24.4481C58.2151 24.5036 58.2586 24.5775 58.2718 24.6699L59.2052 31.2119C59.2184 31.3043 59.1972 31.3874 59.1418 31.4613C59.0863 31.5352 59.0124 31.5788 58.92 31.592L57.7697 31.7561C57.6773 31.7693 57.5942 31.7482 57.5203 31.6927C57.4464 31.6373 57.4028 31.5633 57.3896 31.4709L57.0179 28.8652L53.8857 29.3122L54.2575 31.9179C54.2707 32.0103 54.2495 32.0935 54.1941 32.1674C54.1479 32.24 54.074 32.2835 53.9723 32.298L52.822 32.4621Z" fill="white"/>
<path d="M64.9013 31.7323C64.4242 31.6431 64.0102 31.4707 63.6592 31.2151C63.31 30.9504 63.0498 30.6406 62.8788 30.2858C62.7187 29.9235 62.6755 29.5451 62.7493 29.1506C62.8694 28.5084 63.2215 28.0472 63.8056 27.7672C64.4006 27.4796 65.1367 27.3515 66.0139 27.3826L67.9506 27.46L68.0046 27.171C68.0767 26.7857 68.0362 26.4695 67.883 26.2224C67.7298 25.9754 67.4192 25.8081 66.9514 25.7206C66.6211 25.6588 66.3376 25.677 66.1009 25.7751C65.875 25.8658 65.691 26.0118 65.5489 26.2132C65.4533 26.3187 65.3366 26.3586 65.199 26.3329L64.1119 26.1295C64.011 26.1106 63.9381 26.0685 63.8934 26.0032C63.8578 25.9396 63.8486 25.8619 63.8657 25.7701C63.9024 25.625 63.9955 25.4573 64.145 25.2669C64.2946 25.0765 64.5066 24.9072 64.7812 24.7592C65.0575 24.6019 65.3965 24.4897 65.7984 24.4224C66.2003 24.3552 66.6672 24.3713 67.1993 24.4708C67.7773 24.5789 68.2498 24.7433 68.6168 24.9639C68.9947 25.177 69.2807 25.4251 69.4746 25.7083C69.6685 25.9914 69.7905 26.3039 69.8405 26.6456C69.8905 26.9873 69.8821 27.337 69.8152 27.6948L69.007 32.016C68.9898 32.1078 68.9431 32.1797 68.8669 32.2319C68.7907 32.2841 68.7067 32.3017 68.615 32.2845L67.5003 32.076C67.3994 32.0571 67.3229 32.0096 67.2706 31.9334C67.2276 31.8588 67.2147 31.7757 67.2318 31.684L67.3322 31.1473C67.1803 31.2993 66.9889 31.4344 66.7579 31.5526C66.5286 31.6616 66.2578 31.7392 65.9453 31.7852C65.6438 31.8237 65.2958 31.8061 64.9013 31.7323ZM65.6137 30.5125C65.9348 30.5725 66.2366 30.5578 66.5192 30.4682C66.811 30.3803 67.0569 30.2079 67.2569 29.951C67.4677 29.6866 67.6143 29.3342 67.6967 28.8938L67.7507 28.6048L66.3335 28.5676C65.7768 28.5489 65.3482 28.6064 65.0479 28.7402C64.7475 28.8739 64.5724 29.0738 64.5227 29.3398C64.4849 29.5417 64.512 29.7272 64.6038 29.8963C64.7065 30.0579 64.8473 30.1934 65.0262 30.3029C65.2068 30.4031 65.4027 30.473 65.6137 30.5125Z" fill="white"/>
<path d="M74.0372 34.1041C73.9471 34.0549 73.889 33.986 73.8629 33.8973C73.8451 33.8132 73.8585 33.7301 73.9032 33.6482L76.5188 28.8554L74.5158 27.7621C74.4257 27.7129 74.3676 27.644 74.3416 27.5554C74.3237 27.4712 74.3371 27.3881 74.3818 27.3062L74.7708 26.5934C74.8156 26.5115 74.8781 26.4553 74.9586 26.4248C75.0472 26.3987 75.1366 26.4103 75.2267 26.4595L80.8057 29.5046C80.8958 29.5538 80.9539 29.6227 80.98 29.7114C81.006 29.8 80.9967 29.8853 80.952 29.9673L80.563 30.68C80.5183 30.762 80.4516 30.8159 80.3629 30.842C80.2743 30.868 80.1849 30.8565 80.0948 30.8073L78.1041 29.7207L75.4884 34.5134C75.4437 34.5954 75.377 34.6493 75.2884 34.6754C75.1997 34.7014 75.1145 34.6921 75.0325 34.6474L74.0372 34.1041Z" fill="white"/>
<path d="M80.6346 37.9449C80.5706 37.877 80.54 37.7968 80.5427 37.7045C80.5455 37.6121 80.5808 37.5339 80.6487 37.4699L85.4577 32.938C85.5256 32.874 85.6057 32.8433 85.6981 32.8461C85.7904 32.8488 85.8686 32.8841 85.9326 32.9521L86.7391 33.808C86.8031 33.8759 86.8338 33.9561 86.831 34.0484C86.8283 34.1408 86.793 34.219 86.725 34.283L85.2885 35.6368L86.2774 36.6863C86.9303 37.3792 87.2569 38.0525 87.2573 38.7062C87.2577 39.3598 86.9726 39.9555 86.4021 40.4932C85.8112 41.0501 85.1902 41.2826 84.5393 41.1906C83.8884 41.0986 83.2365 40.7062 82.5837 40.0133L80.6346 37.9449ZM82.6203 38.1128L83.5228 39.0706C83.8364 39.4035 84.128 39.5904 84.3974 39.6314C84.6733 39.6792 84.9607 39.5623 85.2595 39.2807C85.5516 39.0054 85.6954 38.7225 85.6908 38.4318C85.6926 38.148 85.5303 37.8328 85.2039 37.4864L84.3014 36.5286L82.6203 38.1128Z" fill="white"/>
<path d="M91.5163 66.5027C91.546 66.4142 91.6022 66.3494 91.6849 66.3082C91.7677 66.2671 91.8533 66.2614 91.9417 66.2911L98.206 68.3943C98.2944 68.424 98.3593 68.4802 98.4004 68.5629C98.4415 68.6457 98.4473 68.7313 98.4176 68.8197L96.5106 74.5003C96.4779 74.5976 96.4217 74.6625 96.342 74.6947C96.2592 74.7359 96.1736 74.7416 96.0852 74.7119L89.8209 72.6087C89.7324 72.579 89.6676 72.5228 89.6265 72.4401C89.5824 72.3662 89.5767 72.2806 89.6093 72.1832L89.9791 71.0816C90.0088 70.9931 90.0651 70.9283 90.1478 70.8872C90.2305 70.846 90.3161 70.8403 90.4046 70.87L95.5805 72.6078L96.534 69.7676L91.3581 68.0297C91.2696 68 91.2048 67.9438 91.1636 67.8611C91.1195 67.7872 91.1138 67.7016 91.1465 67.6043L91.5163 66.5027Z" fill="white"/>
<path d="M86.0458 78.5609C86.5 77.9683 86.9869 77.5477 87.5065 77.2992C88.0205 77.0581 88.5487 76.9749 89.0911 77.0496C89.6279 77.1317 90.1595 77.351 90.686 77.7074C90.825 77.8022 90.9908 77.9234 91.1834 78.071C91.376 78.2186 91.5362 78.3472 91.6638 78.4568C92.1523 78.8782 92.4994 79.3382 92.7052 79.8369C92.9127 80.3487 92.9669 80.8841 92.8677 81.4432C92.763 82.0096 92.4892 82.5817 92.0464 83.1596C91.6036 83.7374 91.1252 84.1469 90.6112 84.388C90.0916 84.6365 89.5605 84.7234 89.0181 84.6487C88.4774 84.5871 87.9401 84.3752 87.4062 84.0131C87.2672 83.9183 87.1014 83.7971 86.9088 83.6495C86.7162 83.5019 86.556 83.3733 86.4284 83.2637C85.9473 82.848 85.6002 82.388 85.387 81.8836C85.1682 81.3866 85.1111 80.8549 85.2159 80.2885C85.3151 79.7295 85.5917 79.1536 86.0458 78.5609ZM87.1459 79.404C86.8451 79.7967 86.7345 80.1941 86.8144 80.5963C86.9016 81.0042 87.1775 81.4037 87.642 81.795C87.7474 81.8876 87.8891 82.002 88.0669 82.1382C88.2446 82.2745 88.3919 82.3815 88.5087 82.4592C88.9999 82.8004 89.4537 82.96 89.8702 82.9382C90.2867 82.9164 90.6454 82.7091 90.9463 82.3165C91.2471 81.9239 91.354 81.5236 91.2667 81.1157C91.1795 80.7078 90.9073 80.3111 90.4502 79.9256C90.3448 79.833 90.2031 79.7186 90.0253 79.5823C89.8476 79.4461 89.7003 79.3391 89.5835 79.2613C89.0849 78.9145 88.6274 78.752 88.2109 78.7738C87.8018 78.8013 87.4468 79.0114 87.1459 79.404Z" fill="white"/>
<path d="M81.7812 82.1531C81.859 82.1015 81.9432 82.0849 82.0337 82.1032C82.1243 82.1216 82.1954 82.1696 82.247 82.2474L83.547 84.2076C83.5985 84.2853 83.6152 84.3695 83.5968 84.4601C83.5785 84.5506 83.5305 84.6217 83.4527 84.6733L83.3594 84.7352C83.1571 84.8694 83.0634 85.0827 83.0783 85.3753C83.0905 85.6808 83.21 86.0719 83.4366 86.5488C83.6685 87.0334 84.0088 87.6141 84.4576 88.2908L85.5022 89.8659C85.5538 89.9437 85.5705 90.0279 85.5521 90.1184C85.5338 90.209 85.4857 90.2801 85.408 90.3317L81.2547 93.0866C81.1692 93.1433 81.085 93.16 81.0022 93.1365C80.9117 93.1181 80.8406 93.0701 80.789 92.9923L77.7789 88.4536L77.2539 88.8019C77.1683 88.8586 77.0842 88.8753 77.0014 88.8518C76.9108 88.8334 76.8398 88.7854 76.7882 88.7076L75.4804 86.7358C75.4288 86.658 75.4122 86.5738 75.4305 86.4833C75.4411 86.3979 75.4891 86.3268 75.5747 86.27L76.543 85.6277C76.6208 85.5761 76.705 85.5595 76.7955 85.5779C76.8861 85.5962 76.9571 85.6442 77.0087 85.722L77.6742 86.7254L81.3841 84.2646L80.7187 83.2612C80.6671 83.1834 80.6504 83.0992 80.6688 83.0087C80.6871 82.9181 80.7352 82.847 80.8129 82.7954L81.7812 82.1531ZM81.5627 85.927L79.3072 87.4399L81.6828 91.0218L83.3977 89.8843L82.8793 89.1025C82.415 88.4025 82.0773 87.792 81.8663 87.2712C81.6553 86.7504 81.5541 86.3023 81.5627 85.927Z" fill="white"/>
<path d="M72.8201 86.7576C72.9106 86.7351 72.9955 86.7477 73.0747 86.7953C73.1538 86.843 73.2046 86.9121 73.2271 87.0027L75.4614 95.9977C75.4839 96.0883 75.4713 96.1731 75.4237 96.2523C75.376 96.3314 75.3069 96.3823 75.2163 96.4048L74.143 96.6714C74.0434 96.6962 73.9585 96.6836 73.8884 96.6337C73.8093 96.586 73.7584 96.5169 73.7359 96.4263L73.6009 95.8828C73.4555 96.2267 73.2299 96.5376 72.9239 96.8156C72.6179 97.0936 72.2022 97.2978 71.6768 97.4284C71.1968 97.5476 70.761 97.5741 70.3695 97.5079C69.978 97.4417 69.6285 97.2929 69.321 97.0615C69.0157 96.8392 68.7513 96.549 68.5278 96.191C68.3042 95.833 68.1249 95.4207 67.9898 94.9542C67.9425 94.8025 67.8986 94.6451 67.8581 94.482C67.8176 94.319 67.7816 94.1548 67.7501 93.9895C67.6467 93.5343 67.61 93.0962 67.6401 92.6752C67.6724 92.2633 67.7748 91.882 67.9473 91.5314C68.1131 91.192 68.3523 90.897 68.6651 90.6462C68.9778 90.3954 69.3742 90.2103 69.8543 90.0911C70.3434 89.9696 70.7814 89.9521 71.1684 90.0387C71.5576 90.1344 71.8969 90.3001 72.1863 90.536L71.4201 87.4516C71.3976 87.361 71.4102 87.2762 71.4579 87.197C71.4964 87.1201 71.5656 87.0693 71.6652 87.0445L72.8201 86.7576ZM70.7181 91.4201C70.3287 91.5168 70.0455 91.6737 69.8686 91.8908C69.694 92.1169 69.5951 92.3771 69.572 92.6713C69.5399 92.9678 69.5553 93.2814 69.6182 93.612C69.6675 93.8882 69.735 94.16 69.8207 94.4272C69.9198 94.7488 70.0529 95.0331 70.22 95.2801C70.3781 95.5294 70.5861 95.7085 70.844 95.8176C71.1041 95.9357 71.4289 95.9464 71.8184 95.8496C72.1898 95.7573 72.4718 95.5959 72.6646 95.3653C72.8483 95.1369 72.9607 94.8734 73.0019 94.5746C73.0363 94.2872 73.0277 94.0008 72.976 93.7155C72.9446 93.5502 72.9064 93.3769 72.8614 93.1958C72.8164 93.0146 72.768 92.8391 72.7161 92.6692C72.6396 92.3997 72.5109 92.1528 72.3302 91.9284C72.1517 91.7131 71.929 91.552 71.662 91.4452C71.3951 91.3384 71.0804 91.33 70.7181 91.4201Z" fill="white"/>
<path d="M60.3671 91.2318C61.1111 91.2951 61.7277 91.4787 62.2171 91.7826C62.6971 92.0857 63.0518 92.4859 63.2811 92.9831C63.5012 93.4796 63.6029 94.0456 63.5863 94.6812C63.5814 94.8493 63.5686 95.0543 63.5481 95.2961C63.5275 95.5379 63.5054 95.7422 63.4819 95.9088C63.3901 96.5473 63.1896 97.0876 62.8804 97.5297C62.5611 97.9802 62.1393 98.3144 61.6149 98.5321C61.0813 98.749 60.4518 98.8266 59.7265 98.7649C59.0011 98.7032 58.3984 98.5208 57.9184 98.2176C57.4291 97.9137 57.0697 97.5132 56.8404 97.0159C56.601 96.5272 56.4899 95.9604 56.5073 95.3155C56.5122 95.1473 56.525 94.9423 56.5455 94.7005C56.5661 94.4587 56.5882 94.2545 56.6117 94.0879C56.7027 93.4587 56.9032 92.9184 57.2132 92.467C57.5139 92.0149 57.9311 91.6803 58.4647 91.4634C58.989 91.2458 59.6232 91.1685 60.3671 91.2318ZM60.2497 92.6129C59.7568 92.571 59.3625 92.692 59.0667 92.9759C58.7701 93.2692 58.5822 93.7169 58.5029 94.319C58.4817 94.4577 58.4616 94.6387 58.4426 94.8619C58.4237 95.0851 58.4129 95.2668 58.4103 95.4071C58.3876 96.0047 58.4976 96.4731 58.7404 96.8122C58.9832 97.1513 59.3511 97.3419 59.8439 97.3838C60.3368 97.4257 60.7315 97.3001 61.0281 97.0068C61.3247 96.7135 61.5122 96.2705 61.5907 95.6777C61.6119 95.5389 61.632 95.358 61.651 95.1348C61.6699 94.9116 61.6807 94.7298 61.6833 94.5895C61.7068 93.9827 61.5972 93.5097 61.3544 93.1705C61.1108 92.8407 60.7425 92.6548 60.2497 92.6129Z" fill="white"/>
<path d="M51.3977 89.4514C52.1123 89.7503 52.6542 90.1237 53.0234 90.5715C53.3803 91.0243 53.5724 91.5447 53.5996 92.1328C53.6268 92.7208 53.51 93.3751 53.2491 94.0956C53.1447 94.3453 53.0367 94.6036 52.925 94.8705C52.8134 95.1375 52.7054 95.3958 52.6009 95.6455C52.2668 96.3961 51.9308 96.994 51.5927 97.4394C51.2425 97.8899 50.8655 98.2228 50.4617 98.4384C50.0544 98.6626 49.5947 98.7941 49.0828 98.8329C48.5673 98.8803 47.9868 98.8651 47.3415 98.7875C46.6962 98.7098 45.9569 98.6029 45.1235 98.4668C45.0302 98.448 44.9581 98.4026 44.9073 98.3308C44.8478 98.2553 44.8335 98.1684 44.8645 98.0701L45.0531 97.1474C45.0719 97.0541 45.1173 96.982 45.1891 96.9311C45.2574 96.8888 45.3339 96.8753 45.4186 96.8905C46.1342 97.0178 46.754 97.1203 47.2779 97.1978C47.7983 97.2839 48.2441 97.3186 48.6153 97.3019C48.9865 97.2852 49.3129 97.1941 49.5946 97.0286C49.864 96.8681 50.1124 96.6129 50.3397 96.2628C50.567 95.9127 50.792 95.4352 51.0147 94.8303L51.2091 95.1999C51.0458 95.4453 50.8097 95.6349 50.5008 95.7687C50.1919 95.9025 49.8555 95.9692 49.4915 95.9687C49.1153 95.9732 48.7507 95.9017 48.3977 95.754C47.7777 95.4947 47.3054 95.1606 46.9807 94.7516C46.6561 94.3427 46.47 93.8804 46.4226 93.3648C46.363 92.8543 46.4373 92.3137 46.6455 91.7432C46.7579 91.426 46.8768 91.1419 47.002 90.8908C47.2583 90.3505 47.5996 89.9216 48.0257 89.6041C48.4519 89.2866 48.946 89.1089 49.5082 89.0709C50.0704 89.0328 50.7002 89.1597 51.3977 89.4514ZM50.9007 90.6397C50.4358 90.4452 50.019 90.4378 49.6505 90.6176C49.2819 90.7973 48.9756 91.1548 48.7315 91.69C48.6833 91.7812 48.6322 91.8913 48.5782 92.0205C48.5206 92.1582 48.4708 92.2892 48.429 92.4133C48.2194 92.963 48.18 93.4322 48.3109 93.8208C48.4331 94.2058 48.6966 94.4829 49.1013 94.6522C49.5662 94.8466 50.0002 94.8612 50.4032 94.6959C50.7976 94.527 51.1168 94.1749 51.3609 93.6396C51.4199 93.5227 51.4782 93.3953 51.5358 93.2576C51.5899 93.1284 51.6324 93.0147 51.6634 92.9163C51.873 92.3667 51.9124 91.8975 51.7815 91.5089C51.6507 91.1203 51.3571 90.8306 50.9007 90.6397Z" fill="white"/>
<path d="M45.2884 86.9539C45.3581 87.0159 45.3957 87.0931 45.4011 87.1853C45.4065 87.2776 45.3782 87.3586 45.3161 87.4283L40.9244 92.3657C40.8624 92.4354 40.7852 92.473 40.693 92.4784C40.6008 92.4837 40.5198 92.4554 40.4501 92.3934L39.5819 91.621C39.5052 91.5528 39.4676 91.4757 39.4692 91.3896C39.4638 91.2974 39.4921 91.2164 39.5541 91.1466L41.2197 89.2742L38.8557 87.1712L37.1902 89.0436C37.1282 89.1134 37.051 89.1509 36.9588 89.1563C36.8666 89.1617 36.7856 89.1334 36.7158 89.0713L35.8477 88.299C35.7779 88.237 35.7404 88.1598 35.735 88.0676C35.7296 87.9753 35.7579 87.8943 35.8199 87.8246L40.2117 82.8872C40.2737 82.8175 40.3508 82.7799 40.4431 82.7745C40.5353 82.7692 40.6163 82.7975 40.686 82.8595L41.5542 83.6319C41.6239 83.6939 41.6615 83.771 41.6669 83.8633C41.6723 83.9555 41.6439 84.0365 41.5819 84.1063L39.8327 86.0728L42.1966 88.1759L43.9459 86.2093C44.0079 86.1395 44.085 86.102 44.1773 86.0966C44.2625 86.085 44.3435 86.1133 44.4202 86.1816L45.2884 86.9539Z" fill="white"/>
<path d="M36.4413 77.41C36.9514 78.3117 37.0959 79.1737 36.8747 79.9959C36.6536 80.8181 36.0752 81.5206 35.1396 82.1035C35.063 82.1576 34.9638 82.2191 34.8419 82.288C34.7119 82.3616 34.6081 82.415 34.5304 82.4482C33.9028 82.7604 33.2966 82.921 32.712 82.9301C32.1228 82.931 31.5863 82.7787 31.1026 82.4733C30.6107 82.1725 30.1971 81.7256 29.8616 81.1325C29.4894 80.4745 29.315 79.8439 29.3384 79.2409C29.3537 78.6424 29.5407 78.0916 29.8994 77.5883C30.25 77.0897 30.7421 76.6612 31.3757 76.3027L31.6316 76.158C31.7129 76.112 31.798 76.1014 31.887 76.1261C31.976 76.1508 32.0458 76.2078 32.0964 76.2972L34.3849 80.3428C34.3849 80.3428 34.3971 80.336 34.4215 80.3222C34.4458 80.3084 34.4662 80.2969 34.4824 80.2877C34.7621 80.1187 34.9963 79.9166 35.1848 79.6812C35.3606 79.4423 35.4665 79.184 35.5024 78.9063C35.5338 78.6205 35.4713 78.3395 35.3151 78.0633C35.1864 77.8358 35.0459 77.6633 34.8936 77.5457C34.7332 77.4327 34.5807 77.3527 34.4362 77.3058C34.2917 77.2589 34.1795 77.2312 34.0997 77.2227C33.9609 77.2048 33.8718 77.1801 33.8326 77.1486C33.7807 77.1137 33.7294 77.0515 33.6789 76.9622L33.0861 75.9142C33.0401 75.8329 33.0277 75.7542 33.0489 75.6778C33.0655 75.5934 33.1126 75.5346 33.1903 75.5013C33.3249 75.4359 33.5223 75.4154 33.7827 75.4396C34.0384 75.4558 34.3223 75.5311 34.6343 75.6656C34.9463 75.8001 35.2643 76.0116 35.5883 76.3001C35.8997 76.5851 36.184 76.955 36.4413 77.41ZM33.3614 80.9219L31.838 78.2288L31.8015 78.2495C31.4847 78.4288 31.2383 78.6378 31.0625 78.8767C30.8867 79.1156 30.7872 79.3756 30.7639 79.6569C30.7407 79.9381 30.8096 80.2209 30.9704 80.5052C31.1312 80.7895 31.3382 80.9942 31.5911 81.1192C31.8441 81.2441 32.1183 81.2928 32.4136 81.2651C32.7043 81.2293 33.0081 81.1218 33.3249 80.9426L33.3614 80.9219Z" fill="white"/>
<path d="M32.7175 68.6986C32.9232 69.714 32.7935 70.5783 32.3285 71.2915C31.8636 72.0047 31.096 72.4935 30.0259 72.7579C29.9363 72.7856 29.8229 72.8134 29.6857 72.8412C29.5393 72.8708 29.4241 72.8894 29.3399 72.8969C28.6464 72.9993 28.0204 72.9642 27.4617 72.7917C26.9011 72.6101 26.4382 72.2991 26.0729 71.8589C25.6984 71.4205 25.4435 70.8674 25.3083 70.1996C25.1582 69.4586 25.1877 68.8051 25.3968 68.2389C25.5967 67.6746 25.9452 67.2088 26.4421 66.8415C26.9299 66.476 27.5305 66.221 28.244 66.0765L28.5322 66.0181C28.6236 65.9996 28.7079 66.0158 28.7849 66.0669C28.8619 66.118 28.9106 66.1938 28.9309 66.2944L29.8537 70.8501C29.8537 70.8501 29.8674 70.8473 29.8949 70.8417C29.9223 70.8362 29.9452 70.8315 29.9635 70.8278C30.2818 70.7538 30.567 70.6341 30.8192 70.4688C31.0604 70.2961 31.2411 70.0833 31.3612 69.8304C31.4796 69.5684 31.5072 69.2818 31.4442 68.9708C31.3924 68.7147 31.3122 68.5071 31.2038 68.3481C31.0863 68.191 30.9661 68.0677 30.8433 67.9783C30.7204 67.8889 30.6223 67.8279 30.549 67.7951C30.4226 67.735 30.3456 67.6839 30.318 67.6419C30.2795 67.5926 30.25 67.5176 30.2296 67.417L29.9906 66.2369C29.9721 66.1454 29.9847 66.0667 30.0284 66.0007C30.0703 65.9255 30.1334 65.8842 30.2176 65.8767C30.3658 65.8562 30.5599 65.8978 30.7999 66.0015C31.0381 66.0961 31.2847 66.2557 31.5397 66.4802C31.7946 66.7047 32.0315 67.0043 32.2502 67.379C32.458 67.7465 32.6137 68.1863 32.7175 68.6986ZM28.7012 71.0836L28.0869 68.0511L28.0458 68.0594C27.689 68.1317 27.3901 68.2541 27.1489 68.4268C26.9077 68.5995 26.7325 68.8159 26.6233 69.0761C26.5142 69.3363 26.492 69.6265 26.5569 69.9466C26.6217 70.2668 26.755 70.5255 26.9569 70.7227C27.1587 70.9199 27.4043 71.0511 27.6936 71.1163C27.9812 71.1723 28.3033 71.1642 28.66 71.0919L28.7012 71.0836Z" fill="white"/>
</svg>
