<svg width="123" height="123" viewBox="0 0 123 123" fill="none" xmlns="http://www.w3.org/2000/svg">
<path d="M37.3141 43.5056C37.2489 43.5724 37.1702 43.6064 37.0778 43.6076C36.9854 43.6087 36.9058 43.5767 36.839 43.5115L36.0974 42.788C36.024 42.7163 35.9866 42.6343 35.9855 42.5419C35.9844 42.4495 36.0164 42.3699 36.0815 42.3031L36.4433 41.9323C36.6323 41.7385 36.7551 41.5324 36.8118 41.3139C36.8618 41.0889 36.8553 40.8282 36.7922 40.532C36.7225 40.2292 36.6026 39.8776 36.4327 39.4771L33.9408 33.3101C33.8936 33.2248 33.8794 33.1458 33.8983 33.073C33.917 32.9869 33.9557 32.9138 34.0144 32.8537L34.9236 31.9217C34.9757 31.8683 35.0414 31.8411 35.1205 31.8401C35.2063 31.8324 35.2758 31.8547 35.3293 31.9068C35.3627 31.9394 35.3895 31.9721 35.4097 32.0048C35.4299 32.0376 35.4468 32.0737 35.4605 32.1131L38.0951 38.615C38.2996 39.1405 38.4604 39.6038 38.5776 40.005C38.6881 40.3997 38.7421 40.7653 38.7397 41.102C38.7305 41.4321 38.6488 41.7566 38.4943 42.0753C38.3397 42.3808 38.0994 42.7006 37.7736 43.0346L37.3141 43.5056ZM37.0757 40.2414L29.5253 38.0971C29.4657 38.078 29.4225 38.0554 29.3958 38.0294C29.3356 37.9707 29.3083 37.8984 29.3139 37.8125C29.3127 37.7202 29.3382 37.6472 29.3904 37.5938L30.3484 36.6117C30.4071 36.5516 30.4727 36.5178 30.5452 36.5103C30.6175 36.4896 30.7001 36.4985 30.793 36.5369L36.4065 38.1606L37.0757 40.2414Z" fill="white"/>
<path d="M46.6944 35.6032C46.161 35.872 45.6794 36.0362 45.2497 36.096C44.8283 36.1515 44.4609 36.138 44.1476 36.0555C43.8427 35.9688 43.5877 35.8464 43.3827 35.6884C43.1818 35.5179 43.029 35.3493 42.9241 35.1826C42.8863 35.1076 42.8819 35.0367 42.911 34.9698C42.94 34.9029 42.9836 34.8548 43.042 34.8254L44.0672 34.3088C44.1505 34.2668 44.2214 34.252 44.2799 34.2644C44.3467 34.2725 44.4157 34.3057 44.4868 34.3639C44.6961 34.572 44.9385 34.6693 45.214 34.656C45.4977 34.6384 45.8105 34.5435 46.1522 34.3714C46.3856 34.2538 46.5792 34.1196 46.7332 33.9689C46.883 33.8098 46.9764 33.6425 47.0134 33.4671C47.0463 33.2834 47.0144 33.0956 46.9178 32.9039C46.7792 32.6288 46.5951 32.4603 46.3653 32.3984C46.1314 32.3282 45.8352 32.3833 45.4768 32.5639L44.7892 32.9104C44.7058 32.9524 44.6265 32.961 44.5513 32.9361C44.4761 32.9113 44.4175 32.8572 44.3755 32.7739L44.111 32.2487C44.0732 32.1737 44.0667 32.0986 44.0915 32.0234C44.1121 31.9398 44.1641 31.8771 44.2474 31.8351L44.8851 31.5138C45.1851 31.3626 45.3829 31.1951 45.4783 31.0111C45.5695 30.8188 45.5543 30.6018 45.4325 30.3601C45.3611 30.2184 45.2564 30.1039 45.1184 30.0167C44.9845 29.9169 44.8174 29.8652 44.6171 29.8617C44.4167 29.8581 44.1748 29.9277 43.8914 30.0705C43.4997 30.2679 43.252 30.4711 43.1483 30.6801C43.0446 30.8891 43.0182 31.1376 43.0692 31.4254C43.0736 31.5172 43.0592 31.5924 43.026 31.651C43.0012 31.7053 42.9429 31.7556 42.8512 31.8018L41.8635 32.2994C41.7968 32.333 41.728 32.3416 41.657 32.3251C41.5943 32.3044 41.5441 32.2566 41.5063 32.1815C41.4096 31.9481 41.3545 31.6936 41.3412 31.4182C41.3319 31.1302 41.3874 30.8357 41.5075 30.5348C41.636 30.2297 41.8438 29.9369 42.1309 29.6563C42.4138 29.3675 42.8012 29.0991 43.293 28.8514C43.9597 28.5154 44.5352 28.3404 45.0193 28.3264C45.5034 28.3124 45.9002 28.4051 46.2097 28.6046C46.5233 28.7914 46.7557 29.0349 46.9069 29.335C47.0623 29.6434 47.1383 29.9396 47.135 30.2234C47.14 30.5031 47.0282 30.7893 46.7995 31.0822C47.246 31.0349 47.6136 31.1215 47.9022 31.3418C48.1909 31.5622 48.4276 31.8453 48.6123 32.1912C48.8222 32.608 48.8799 33.0231 48.7851 33.4367C48.6862 33.8419 48.4599 34.2328 48.1063 34.6096C47.7485 34.978 47.2778 35.3092 46.6944 35.6032Z" fill="white"/>
<path d="M52.8225 32.4626C52.7301 32.4758 52.647 32.4547 52.5731 32.3992C52.4991 32.3438 52.4556 32.2699 52.4424 32.1775L51.509 25.6355C51.4958 25.5431 51.517 25.4599 51.5724 25.386C51.6279 25.3121 51.7018 25.2686 51.7942 25.2554L52.9445 25.0912C53.0461 25.0767 53.1293 25.0979 53.1939 25.1546C53.2678 25.2101 53.3114 25.284 53.3246 25.3764L53.6786 27.8574L56.8107 27.4104L56.4567 24.9295C56.4436 24.8371 56.4647 24.7539 56.5201 24.68C56.5756 24.6061 56.6495 24.5625 56.7419 24.5494L57.8922 24.3852C57.9846 24.372 58.0678 24.3932 58.1417 24.4486C58.2156 24.5041 58.2591 24.578 58.2723 24.6704L59.2057 31.2124C59.2189 31.3048 59.1977 31.3879 59.1423 31.4618C59.0868 31.5357 59.0129 31.5793 58.9205 31.5925L57.7702 31.7566C57.6778 31.7698 57.5947 31.7487 57.5208 31.6932C57.4469 31.6378 57.4033 31.5638 57.3901 31.4714L57.0184 28.8657L53.8862 29.3127L54.258 31.9184C54.2712 32.0108 54.25 32.0939 54.1946 32.1678C54.1484 32.2404 54.0744 32.284 53.9728 32.2985L52.8225 32.4626Z" fill="white"/>
<path d="M64.9018 31.7328C64.4247 31.6436 64.0107 31.4712 63.6597 31.2156C63.3104 30.9509 63.0503 30.6411 62.8793 30.2862C62.7192 29.924 62.676 29.5456 62.7498 29.1511C62.8699 28.5088 63.222 28.0477 63.8061 27.7676C64.4011 27.4801 65.1372 27.3519 66.0144 27.3831L67.9511 27.4605L68.0051 27.1715C68.0772 26.7862 68.0366 26.47 67.8835 26.2229C67.7303 25.9759 67.4197 25.8086 66.9519 25.7211C66.6216 25.6593 66.3381 25.6775 66.1014 25.7756C65.8755 25.8663 65.6915 26.0123 65.5494 26.2136C65.4537 26.3192 65.3371 26.3591 65.1995 26.3333L64.1124 26.13C64.0114 26.1111 63.9386 26.069 63.8939 26.0037C63.8583 25.94 63.8491 25.8624 63.8662 25.7706C63.9029 25.6255 63.996 25.4578 64.1455 25.2674C64.2951 25.0769 64.5071 24.9077 64.7817 24.7597C65.0579 24.6024 65.397 24.4902 65.7989 24.4229C66.2008 24.3557 66.6677 24.3718 67.1998 24.4713C67.7778 24.5794 68.2503 24.7438 68.6173 24.9644C68.9952 25.1775 69.2811 25.4256 69.4751 25.7088C69.669 25.9919 69.7909 26.3044 69.841 26.646C69.891 26.9877 69.8826 27.3375 69.8156 27.6953L69.0075 32.0165C68.9903 32.1082 68.9436 32.1802 68.8674 32.2324C68.7912 32.2846 68.7072 32.3022 68.6155 32.285L67.5008 32.0765C67.3999 32.0576 67.3233 32.0101 67.2711 31.9338C67.2281 31.8593 67.2152 31.7762 67.2323 31.6845L67.3327 31.1477C67.1808 31.2997 66.9894 31.4349 66.7584 31.5531C66.5291 31.6621 66.2583 31.7396 65.9458 31.7856C65.6443 31.8242 65.2963 31.8066 64.9018 31.7328ZM65.6142 30.5129C65.9352 30.573 66.2371 30.5582 66.5197 30.4687C66.8115 30.3808 67.0574 30.2084 67.2573 29.9515C67.4682 29.6871 67.6148 29.3347 67.6972 28.8943L67.7512 28.6053L66.3339 28.5681C65.7772 28.5494 65.3487 28.6069 65.0483 28.7407C64.748 28.8744 64.5729 29.0743 64.5232 29.3403C64.4854 29.5422 64.5124 29.7276 64.6043 29.8967C64.7069 30.0584 64.8478 30.1939 65.0267 30.3034C65.2073 30.4036 65.4032 30.4735 65.6142 30.5129Z" fill="white"/>
<path d="M74.0377 34.1046C73.9475 34.0554 73.8895 33.9865 73.8634 33.8978C73.8456 33.8136 73.859 33.7306 73.9037 33.6487L76.5193 28.8559L74.5163 27.7626C74.4262 27.7134 74.3681 27.6445 74.3421 27.5558C74.3242 27.4717 74.3376 27.3886 74.3823 27.3067L74.7713 26.5939C74.816 26.512 74.8786 26.4558 74.9591 26.4252C75.0477 26.3992 75.1371 26.4108 75.2272 26.46L80.8062 29.5051C80.8963 29.5543 80.9544 29.6232 80.9805 29.7119C81.0065 29.8005 80.9972 29.8858 80.9525 29.9677L80.5635 30.6805C80.5188 30.7624 80.4521 30.8164 80.3634 30.8425C80.2748 30.8685 80.1854 30.857 80.0953 30.8078L78.1045 29.7212L75.4889 34.5139C75.4442 34.5958 75.3775 34.6498 75.2889 34.6759C75.2002 34.7019 75.1149 34.6926 75.033 34.6479L74.0377 34.1046Z" fill="white"/>
<path d="M80.6351 37.9454C80.5711 37.8774 80.5405 37.7973 80.5432 37.7049C80.546 37.6126 80.5813 37.5344 80.6492 37.4704L85.4582 32.9384C85.5261 32.8744 85.6062 32.8438 85.6986 32.8465C85.7909 32.8493 85.8691 32.8846 85.9331 32.9525L86.7396 33.8084C86.8036 33.8764 86.8343 33.9565 86.8315 34.0489C86.8288 34.1412 86.7934 34.2194 86.7255 34.2834L85.2889 35.6372L86.2779 36.6868C86.9307 37.3796 87.2574 38.0529 87.2578 38.7066C87.2582 39.3603 86.9731 39.956 86.4026 40.4937C85.8116 41.0506 85.1907 41.283 84.5398 41.1911C83.8889 41.0991 83.237 40.7067 82.5842 40.0138L80.6351 37.9454ZM82.6208 38.1133L83.5233 39.0711C83.8369 39.4039 84.1285 39.5909 84.3979 39.6319C84.6738 39.6797 84.9612 39.5628 85.26 39.2811C85.5521 39.0059 85.6959 38.7229 85.6913 38.4323C85.6931 38.1484 85.5308 37.8333 85.2043 37.4868L84.3018 36.529L82.6208 38.1133Z" fill="white"/>
<path d="M91.5168 66.5031C91.5465 66.4146 91.6027 66.3498 91.6854 66.3087C91.7681 66.2675 91.8537 66.2618 91.9422 66.2915L98.2065 68.3947C98.2949 68.4244 98.3597 68.4806 98.4009 68.5634C98.442 68.6461 98.4478 68.7317 98.418 68.8202L96.5111 74.5008C96.4784 74.5981 96.4222 74.6629 96.3424 74.6952C96.2597 74.7364 96.1741 74.7421 96.0856 74.7124L89.8214 72.6092C89.7329 72.5795 89.6681 72.5232 89.627 72.4405C89.5829 72.3666 89.5771 72.281 89.6098 72.1837L89.9796 71.0821C90.0093 70.9936 90.0655 70.9288 90.1483 70.8876C90.231 70.8465 90.3166 70.8408 90.4051 70.8705L95.581 72.6083L96.5345 69.768L91.3586 68.0302C91.2701 68.0005 91.2053 67.9443 91.1641 67.8615C91.12 67.7877 91.1143 67.7021 91.147 67.6047L91.5168 66.5031Z" fill="white"/>
<path d="M86.0463 78.5614C86.5005 77.9687 86.9874 77.5481 87.507 77.2996C88.021 77.0586 88.5492 76.9754 89.0916 77.0501C89.6284 77.1322 90.16 77.3514 90.6864 77.7079C90.8255 77.8026 90.9913 77.9238 91.1839 78.0715C91.3765 78.2191 91.5366 78.3477 91.6643 78.4573C92.1528 78.8786 92.4999 79.3387 92.7057 79.8374C92.9132 80.3492 92.9674 80.8846 92.8682 81.4436C92.7634 82.01 92.4896 82.5822 92.0469 83.16C91.6041 83.7379 91.1257 84.1474 90.6117 84.3885C90.0921 84.637 89.561 84.7239 89.0186 84.6492C88.4779 84.5875 87.9406 84.3757 87.4067 84.0136C87.2677 83.9188 87.1019 83.7976 86.9093 83.65C86.7167 83.5024 86.5565 83.3738 86.4289 83.2642C85.9478 82.8485 85.6007 82.3884 85.3875 81.8841C85.1687 81.3871 85.1116 80.8554 85.2164 80.2889C85.3155 79.7299 85.5922 79.1541 86.0463 78.5614ZM87.1464 79.4045C86.8455 79.7971 86.735 80.1946 86.8149 80.5968C86.9021 81.0046 87.178 81.4042 87.6425 81.7954C87.7479 81.888 87.8896 82.0024 88.0673 82.1387C88.2451 82.2749 88.3924 82.3819 88.5092 82.4597C89.0004 82.8008 89.4542 82.9605 89.8707 82.9387C90.2872 82.9168 90.6459 82.7096 90.9468 82.317C91.2476 81.9243 91.3544 81.5241 91.2672 81.1162C91.1799 80.7083 90.9078 80.3116 90.4507 79.926C90.3452 79.8334 90.2036 79.719 90.0258 79.5828C89.848 79.4465 89.7007 79.3395 89.5839 79.2618C89.0854 78.915 88.6279 78.7525 88.2114 78.7743C87.8023 78.8018 87.4473 79.0118 87.1464 79.4045Z" fill="white"/>
<path d="M81.7817 82.1536C81.8595 82.102 81.9437 82.0854 82.0342 82.1037C82.1248 82.122 82.1959 82.1701 82.2474 82.2479L83.5474 84.208C83.599 84.2858 83.6157 84.37 83.5973 84.4605C83.579 84.5511 83.5309 84.6222 83.4532 84.6738L83.3598 84.7357C83.1576 84.8698 83.0639 85.0832 83.0788 85.3757C83.091 85.6812 83.2105 86.0724 83.4371 86.5492C83.6689 87.0339 84.0093 87.6146 84.4581 88.2913L85.5027 89.8664C85.5543 89.9442 85.5709 90.0283 85.5526 90.1189C85.5343 90.2095 85.4862 90.2805 85.4084 90.3321L81.2552 93.0871C81.1696 93.1438 81.0855 93.1604 81.0027 93.1369C80.9121 93.1186 80.8411 93.0705 80.7895 92.9928L77.7794 88.4541L77.2544 88.8023C77.1688 88.8591 77.0846 88.8757 77.0019 88.8522C76.9113 88.8339 76.8402 88.7858 76.7887 88.708L75.4809 86.7362C75.4293 86.6585 75.4127 86.5743 75.431 86.4837C75.4416 86.3983 75.4896 86.3272 75.5752 86.2705L76.5435 85.6282C76.6213 85.5766 76.7054 85.56 76.796 85.5783C76.8866 85.5966 76.9576 85.6447 77.0092 85.7225L77.6747 86.7259L81.3846 84.265L80.7191 83.2616C80.6676 83.1838 80.6509 83.0997 80.6693 83.0091C80.6876 82.9186 80.7356 82.8475 80.8134 82.7959L81.7817 82.1536ZM81.5632 85.9274L79.3077 87.4404L81.6833 91.0223L83.3982 89.8847L82.8798 89.103C82.4155 88.4029 82.0778 87.7925 81.8668 87.2717C81.6558 86.7508 81.5546 86.3028 81.5632 85.9274Z" fill="white"/>
<path d="M72.8205 86.7581C72.9111 86.7356 72.996 86.7481 73.0751 86.7958C73.1543 86.8434 73.2051 86.9126 73.2276 87.0032L75.4619 95.9981C75.4844 96.0887 75.4718 96.1736 75.4242 96.2527C75.3765 96.3319 75.3074 96.3827 75.2168 96.4052L74.1435 96.6719C74.0439 96.6966 73.959 96.6841 73.8889 96.6342C73.8097 96.5865 73.7589 96.5174 73.7364 96.4268L73.6014 95.8833C73.456 96.2272 73.2303 96.5381 72.9243 96.8161C72.6183 97.0941 72.2027 97.2983 71.6773 97.4288C71.1973 97.5481 70.7615 97.5746 70.37 97.5084C69.9785 97.4421 69.629 97.2933 69.3215 97.062C69.0162 96.8397 68.7518 96.5495 68.5283 96.1915C68.3047 95.8335 68.1254 95.4212 67.9903 94.9547C67.9429 94.8029 67.899 94.6455 67.8585 94.4825C67.818 94.3194 67.7821 94.1553 67.7506 93.99C67.6472 93.5348 67.6105 93.0967 67.6405 92.6757C67.6728 92.2637 67.7753 91.8824 67.9478 91.5318C68.1136 91.1925 68.3528 90.8974 68.6656 90.6466C68.9783 90.3958 69.3747 90.2108 69.8548 90.0915C70.3439 89.97 70.7819 89.9526 71.1689 90.0392C71.5581 90.1348 71.8974 90.3006 72.1868 90.5364L71.4206 87.4521C71.3981 87.3615 71.4107 87.2766 71.4583 87.1975C71.4969 87.1205 71.5661 87.0697 71.6657 87.045L72.8205 86.7581ZM70.7186 91.4205C70.3291 91.5173 70.046 91.6742 69.8691 91.8912C69.6944 92.1173 69.5956 92.3775 69.5725 92.6718C69.5404 92.9683 69.5558 93.2818 69.6186 93.6124C69.668 93.8887 69.7355 94.1604 69.8211 94.4277C69.9203 94.7493 70.0534 95.0336 70.2205 95.2806C70.3786 95.5298 70.5866 95.709 70.8445 95.818C71.1046 95.9361 71.4294 95.9468 71.8189 95.8501C72.1903 95.7578 72.4723 95.5964 72.6651 95.3657C72.8488 95.1374 72.9612 94.8738 73.0024 94.5751C73.0368 94.2876 73.0282 94.0012 72.9765 93.7159C72.9451 93.5506 72.9068 93.3774 72.8618 93.1962C72.8168 93.0151 72.7684 92.8396 72.7166 92.6697C72.6401 92.4002 72.5114 92.1533 72.3307 91.9289C72.1522 91.7135 71.9294 91.5525 71.6625 91.4457C71.3956 91.3389 71.0809 91.3305 70.7186 91.4205Z" fill="white"/>
<path d="M60.3676 91.2323C61.1116 91.2956 61.7282 91.4792 62.2175 91.7831C62.6976 92.0862 63.0523 92.4864 63.2816 92.9836C63.5016 93.48 63.6034 94.046 63.5868 94.6816C63.5819 94.8498 63.5691 95.0548 63.5485 95.2966C63.528 95.5384 63.5059 95.7426 63.4824 95.9092C63.3906 96.5478 63.1901 97.0881 62.8809 97.5301C62.5616 97.9807 62.1398 98.3148 61.6154 98.5325C61.0818 98.7494 60.4523 98.827 59.727 98.7653C59.0016 98.7036 58.3989 98.5212 57.9189 98.2181C57.4296 97.9142 57.0702 97.5136 56.8409 97.0164C56.6014 96.5276 56.4904 95.9608 56.5078 95.316C56.5127 95.1478 56.5255 94.9428 56.546 94.701C56.5666 94.4592 56.5886 94.255 56.6122 94.0884C56.7032 93.4591 56.9037 92.9188 57.2137 92.4675C57.5144 92.0153 57.9316 91.6808 58.4652 91.4639C58.9895 91.2462 59.6237 91.169 60.3676 91.2323ZM60.2502 92.6133C59.7573 92.5714 59.363 92.6924 59.0672 92.9764C58.7706 93.2697 58.5827 93.7174 58.5033 94.3195C58.4822 94.4582 58.4621 94.6392 58.4431 94.8624C58.4241 95.0856 58.4134 95.2673 58.4108 95.4076C58.3881 96.0052 58.4981 96.4735 58.7409 96.8127C58.9837 97.1518 59.3515 97.3423 59.8444 97.3843C60.3373 97.4262 60.732 97.3005 61.0286 97.0072C61.3252 96.714 61.5127 96.2709 61.5912 95.6781C61.6124 95.5394 61.6325 95.3584 61.6515 95.1352C61.6704 94.912 61.6812 94.7303 61.6838 94.59C61.7073 93.9831 61.5976 93.5101 61.3548 93.171C61.1113 92.8411 60.743 92.6553 60.2502 92.6133Z" fill="white"/>
<path d="M51.3982 89.4519C52.1128 89.7508 52.6547 90.1242 53.0239 90.572C53.3808 91.0248 53.5729 91.5452 53.6001 92.1333C53.6273 92.7213 53.5105 93.3756 53.2496 94.0961C53.1452 94.3458 53.0372 94.6041 52.9255 94.871C52.8139 95.138 52.7059 95.3963 52.6014 95.646C52.2673 96.3966 51.9312 96.9945 51.5932 97.4399C51.243 97.8903 50.866 98.2233 50.4622 98.4389C50.0549 98.6631 49.5952 98.7946 49.0833 98.8334C48.5677 98.8808 47.9873 98.8656 47.342 98.7879C46.6967 98.7102 45.9574 98.6034 45.124 98.4673C45.0307 98.4485 44.9586 98.4031 44.9078 98.3313C44.8483 98.2558 44.834 98.1689 44.865 98.0706L45.0536 97.1479C45.0724 97.0546 45.1178 96.9825 45.1896 96.9316C45.2579 96.8893 45.3343 96.8758 45.419 96.891C46.1347 97.0183 46.7544 97.1207 47.2784 97.1983C47.7988 97.2844 48.2446 97.3191 48.6158 97.3024C48.987 97.2857 49.3134 97.1945 49.5951 97.0291C49.8645 96.8686 50.1129 96.6134 50.3402 96.2633C50.5675 95.9132 50.7925 95.4357 51.0152 94.8308L51.2096 95.2004C51.0463 95.4458 50.8102 95.6353 50.5013 95.7692C50.1924 95.903 49.856 95.9697 49.492 95.9692C49.1158 95.9737 48.7512 95.9022 48.3982 95.7545C47.7782 95.4952 47.3059 95.1611 46.9812 94.7521C46.6566 94.3431 46.4705 93.8809 46.4231 93.3653C46.3635 92.8548 46.4378 92.3142 46.646 91.7437C46.7584 91.4265 46.8773 91.1424 47.0025 90.8913C47.2588 90.351 47.6 89.9221 48.0262 89.6046C48.4524 89.2871 48.9465 89.1094 49.5087 89.0713C50.0709 89.0333 50.7007 89.1602 51.3982 89.4519ZM50.9012 90.6402C50.4362 90.4457 50.0195 90.4383 49.651 90.618C49.2824 90.7978 48.9761 91.1553 48.732 91.6905C48.6838 91.7816 48.6327 91.8918 48.5787 92.0209C48.521 92.1587 48.4713 92.2897 48.4295 92.4138C48.2199 92.9635 48.1805 93.4327 48.3114 93.8213C48.4336 94.2063 48.6971 94.4834 49.1018 94.6527C49.5667 94.8471 50.0007 94.8617 50.4037 94.6964C50.798 94.5275 51.1173 94.1754 51.3614 93.6401C51.4204 93.5232 51.4787 93.3958 51.5363 93.258C51.5903 93.1289 51.6328 93.0151 51.6639 92.9168C51.8735 92.3671 51.9129 91.898 51.782 91.5094C51.6512 91.1208 51.3576 90.8311 50.9012 90.6402Z" fill="white"/>
<path d="M45.2889 86.9544C45.3586 87.0164 45.3962 87.0935 45.4016 87.1858C45.407 87.278 45.3787 87.359 45.3166 87.4288L40.9249 92.3661C40.8629 92.4359 40.7857 92.4734 40.6935 92.4788C40.6013 92.4842 40.5203 92.4559 40.4506 92.3938L39.5824 91.6215C39.5057 91.5532 39.4681 91.4761 39.4697 91.3901C39.4643 91.2978 39.4926 91.2168 39.5546 91.1471L41.2201 89.2747L38.8562 87.1716L37.1907 89.0441C37.1286 89.1138 37.0515 89.1514 36.9593 89.1568C36.867 89.1622 36.7861 89.1338 36.7163 89.0718L35.8481 88.2994C35.7784 88.2374 35.7408 88.1603 35.7354 88.068C35.7301 87.9758 35.7584 87.8948 35.8204 87.8251L40.2121 82.8877C40.2742 82.818 40.3513 82.7804 40.4435 82.775C40.5358 82.7696 40.6168 82.7979 40.6865 82.86L41.5547 83.6323C41.6244 83.6944 41.662 83.7715 41.6674 83.8637C41.6728 83.956 41.6444 84.037 41.5824 84.1067L39.8332 86.0733L42.1971 88.1763L43.9464 86.2097C44.0084 86.14 44.0855 86.1024 44.1778 86.097C44.263 86.0855 44.344 86.1138 44.4207 86.182L45.2889 86.9544Z" fill="white"/>
<path d="M36.4418 77.4104C36.9519 78.3122 37.0964 79.1742 36.8752 79.9963C36.654 80.8185 36.0757 81.5211 35.1401 82.104C35.0635 82.1581 34.9642 82.2196 34.8424 82.2885C34.7124 82.362 34.6086 82.4154 34.5309 82.4487C33.9033 82.7608 33.2971 82.9215 32.7125 82.9305C32.1233 82.9314 31.5868 82.7792 31.1031 82.4738C30.6112 82.173 30.1975 81.726 29.8621 81.133C29.4898 80.4749 29.3154 79.8444 29.3389 79.2413C29.3542 78.6429 29.5412 78.092 29.8999 77.5888C30.2505 77.0902 30.7426 76.6616 31.3762 76.3032L31.6321 76.1584C31.7133 76.1125 31.7985 76.1018 31.8875 76.1265C31.9765 76.1512 32.0463 76.2082 32.0969 76.2976L34.3854 80.3433C34.3854 80.3433 34.3976 80.3364 34.422 80.3226C34.4463 80.3088 34.4666 80.2973 34.4829 80.2882C34.7626 80.1192 34.9967 79.917 35.1853 79.6817C35.3611 79.4428 35.467 79.1845 35.5029 78.9068C35.5343 78.621 35.4718 78.3399 35.3155 78.0637C35.1869 77.8363 35.0464 77.6637 34.8941 77.5461C34.7337 77.4332 34.5812 77.3532 34.4367 77.3063C34.2922 77.2593 34.18 77.2316 34.1002 77.2232C33.9614 77.2052 33.8723 77.1805 33.8331 77.1491C33.7812 77.1141 33.7299 77.052 33.6794 76.9626L33.0866 75.9146C33.0406 75.8334 33.0282 75.7546 33.0494 75.6783C33.0659 75.5939 33.1131 75.535 33.1908 75.5018C33.3253 75.4364 33.5228 75.4158 33.7832 75.4401C34.0389 75.4562 34.3228 75.5316 34.6348 75.6661C34.9468 75.8005 35.2648 76.012 35.5888 76.3006C35.9002 76.5855 36.1845 76.9555 36.4418 77.4104ZM33.3619 80.9224L31.8385 78.2293L31.8019 78.25C31.4851 78.4292 31.2388 78.6383 31.063 78.8772C30.8872 79.116 30.7876 79.3761 30.7644 79.6573C30.7412 79.9386 30.81 80.2213 30.9709 80.5057C31.1317 80.79 31.3386 80.9947 31.5916 81.1196C31.8446 81.2446 32.1187 81.2932 32.4141 81.2656C32.7048 81.2298 33.0085 81.1223 33.3253 80.943L33.3619 80.9224Z" fill="white"/>
<path d="M32.718 68.6991C32.9237 69.7145 32.794 70.5788 32.329 71.292C31.8641 72.0052 31.0965 72.494 30.0264 72.7584C29.9368 72.7861 29.8234 72.8138 29.6862 72.8416C29.5398 72.8713 29.4245 72.8899 29.3404 72.8974C28.6469 72.9998 28.0208 72.9647 27.4622 72.7922C26.9016 72.6106 26.4387 72.2996 26.0734 71.8594C25.6989 71.421 25.444 70.8679 25.3087 70.2001C25.1587 69.4591 25.1882 68.8055 25.3972 68.2394C25.5972 67.6751 25.9456 67.2093 26.4426 66.842C26.9304 66.4765 27.531 66.2215 28.2445 66.077L28.5327 66.0186C28.6241 66.0001 28.7084 66.0163 28.7854 66.0674C28.8624 66.1185 28.9111 66.1943 28.9314 66.2949L29.8542 70.8506C29.8542 70.8506 29.8679 70.8478 29.8954 70.8422C29.9228 70.8367 29.9457 70.832 29.964 70.8283C30.2823 70.7543 30.5675 70.6346 30.8197 70.4693C31.0609 70.2966 31.2416 70.0838 31.3617 69.8309C31.4801 69.5689 31.5077 69.2823 31.4447 68.9713C31.3928 68.7152 31.3127 68.5076 31.2043 68.3486C31.0868 68.1915 30.9666 68.0682 30.8437 67.9788C30.7209 67.8894 30.6228 67.8284 30.5495 67.7956C30.4231 67.7355 30.3461 67.6844 30.3185 67.6424C30.28 67.5931 30.2505 67.5181 30.2301 67.4175L29.9911 66.2374C29.9725 66.1459 29.9852 66.0672 30.0289 66.0012C30.0708 65.926 30.1339 65.8847 30.2181 65.8771C30.3663 65.8566 30.5604 65.8983 30.8004 66.002C31.0386 66.0966 31.2852 66.2562 31.5402 66.4807C31.7951 66.7052 32.032 67.0048 32.2507 67.3795C32.4585 67.7469 32.6142 68.1868 32.718 68.6991ZM28.7017 71.0841L28.0874 68.0515L28.0462 68.0599C27.6895 68.1321 27.3905 68.2546 27.1494 68.4273C26.9082 68.5999 26.733 68.8164 26.6238 69.0766C26.5146 69.3368 26.4925 69.627 26.5573 69.9471C26.6222 70.2673 26.7555 70.526 26.9574 70.7232C27.1592 70.9204 27.4048 71.0516 27.6941 71.1168C27.9816 71.1728 28.3038 71.1647 28.6605 71.0924L28.7017 71.0841Z" fill="white"/>
</svg>
