<svg width="120" height="121" viewBox="0 0 120 121" fill="none" xmlns="http://www.w3.org/2000/svg">
<path d="M42.8535 35.2364C42.7701 35.2784 42.6846 35.2849 42.5969 35.2559C42.5091 35.227 42.4442 35.1708 42.4023 35.0875L38.2953 26.9353C38.2533 26.8519 38.2468 26.7664 38.2758 26.6786C38.3047 26.5909 38.3609 26.526 38.4442 26.484L39.6069 25.8982C39.6903 25.8562 39.7758 25.8496 39.8636 25.8786C39.9513 25.9076 40.0162 25.9637 40.0582 26.0471L43.5667 33.0114L47.5299 31.0146C47.6216 30.9684 47.7113 30.9597 47.799 30.9887C47.8868 31.0176 47.9537 31.078 47.9999 31.1697L48.4409 32.0449C48.4829 32.1282 48.4894 32.2138 48.4604 32.3015C48.4315 32.3893 48.3712 32.4563 48.2795 32.5025L42.8535 35.2364Z" fill="white"/>
<path d="M54.8866 31.9308C53.861 32.0771 53.0057 31.8975 52.3208 31.3918C51.6359 30.8862 51.1925 30.0915 50.9907 29.0077C50.9683 28.9166 50.9472 28.8018 50.9274 28.6632C50.9064 28.5154 50.8945 28.3992 50.8919 28.3147C50.83 27.6164 50.9013 26.9934 51.106 26.4457C51.3199 25.8966 51.6572 25.4525 52.1179 25.1133C52.5773 24.7649 53.1442 24.5426 53.8187 24.4463C54.5671 24.3395 55.2178 24.407 55.7708 24.6486C56.3225 24.881 56.7672 25.256 57.105 25.7735C57.4415 26.2817 57.6611 26.8962 57.764 27.6169L57.8055 27.908C57.8187 28.0004 57.7976 28.0835 57.7421 28.1575C57.6867 28.2314 57.6081 28.2756 57.5065 28.2901L52.9053 28.9467C52.9053 28.9467 52.9072 28.9605 52.9112 28.9882C52.9151 29.016 52.9184 29.0391 52.9211 29.0575C52.9765 29.3796 53.0794 29.6714 53.2298 29.9327C53.3881 30.1836 53.59 30.3763 53.8355 30.511C54.0902 30.6444 54.3747 30.6886 54.6888 30.6438C54.9475 30.6069 55.1594 30.5389 55.3244 30.44C55.488 30.3317 55.6181 30.2189 55.7144 30.1014C55.8108 29.984 55.8775 29.8896 55.9144 29.8183C55.9818 29.6956 56.0372 29.6217 56.0808 29.5966C56.1323 29.561 56.2088 29.5359 56.3105 29.5214L57.5023 29.3513C57.5947 29.3382 57.6726 29.3553 57.736 29.4029C57.8085 29.4491 57.8462 29.5144 57.8488 29.5989C57.8606 29.748 57.8078 29.9394 57.6903 30.1731C57.582 30.4054 57.4084 30.6423 57.1695 30.8838C56.9305 31.1253 56.6177 31.3444 56.2309 31.541C55.8521 31.727 55.404 31.857 54.8866 31.9308ZM52.7391 27.7824L55.802 27.3453L55.7961 27.3038C55.7447 26.9434 55.6398 26.6378 55.4814 26.387C55.3231 26.1362 55.1172 25.9487 54.8638 25.8246C54.6104 25.7005 54.322 25.6615 53.9987 25.7076C53.6753 25.7538 53.4093 25.8719 53.2007 26.0619C52.9922 26.2519 52.8469 26.4895 52.765 26.7746C52.6924 27.0584 52.6818 27.3805 52.7332 27.7408L52.7391 27.7824Z" fill="white"/>
<path d="M62.4523 30.9934C62.3606 30.9762 62.2886 30.9295 62.2364 30.8533C62.1842 30.7771 62.1667 30.6931 62.1838 30.6013L63.3961 24.1196C63.4149 24.0186 63.4625 23.9421 63.5387 23.8899C63.615 23.8377 63.6989 23.8201 63.7907 23.8373L64.9053 24.0458C64.9971 24.0629 65.069 24.1096 65.1212 24.1859C65.1826 24.2638 65.2039 24.3533 65.185 24.4542L65.0795 25.0184C65.3454 24.7643 65.6581 24.5901 66.0175 24.496C66.3861 24.4035 66.7906 24.3984 67.2309 24.4808L67.7951 24.5863C67.896 24.6052 67.968 24.6519 68.011 24.7264C68.0633 24.8027 68.0808 24.8866 68.0636 24.9784L67.8783 25.9692C67.8612 26.061 67.8145 26.133 67.7382 26.1852C67.6712 26.2391 67.5872 26.2566 67.4863 26.2377L66.4129 26.037C65.9726 25.9546 65.6054 26.0141 65.3114 26.2155C65.0265 26.4186 64.8438 26.7357 64.7631 27.1669L64.0553 30.9514C64.0382 31.0432 63.9915 31.1151 63.9152 31.1673C63.839 31.2195 63.7504 31.2362 63.6495 31.2173L62.4523 30.9934Z" fill="white"/>
<path d="M71.6512 32.9242C71.5692 32.8795 71.5153 32.8128 71.4892 32.7242C71.4632 32.6355 71.4725 32.5502 71.5172 32.4683L74.6828 26.6678C74.7275 26.5859 74.7942 26.5319 74.8828 26.5059C74.9715 26.4798 75.0568 26.4892 75.1387 26.5339L76.1463 27.0839C76.2283 27.1286 76.2822 27.1953 76.3083 27.2839C76.3343 27.3726 76.325 27.4579 76.2803 27.5398L76.0053 28.0436C76.3614 27.8977 76.7502 27.8282 77.1718 27.835C77.6061 27.8381 78.069 27.9738 78.5605 28.2421C79.0602 28.5149 79.4318 28.8666 79.6753 29.2972C79.9232 29.7196 80.0337 30.1893 80.0068 30.7063C79.988 31.2277 79.8222 31.7751 79.5092 32.3486L77.6246 35.8019C77.5799 35.8838 77.5132 35.9378 77.4246 35.9638C77.3359 35.9899 77.2506 35.9806 77.1687 35.9358L76.0873 35.3456C76.0054 35.3009 75.9514 35.2342 75.9254 35.1455C75.8993 35.0569 75.9086 34.9716 75.9534 34.8897L77.7977 31.5102C78.057 31.035 78.1417 30.5974 78.0517 30.1973C77.9698 29.8018 77.7077 29.4833 77.2653 29.2418C76.8393 29.0093 76.4256 28.9589 76.0241 29.0906C75.6225 29.2224 75.2921 29.5258 75.0328 30.001L73.1884 33.3805C73.1437 33.4624 73.0771 33.5164 72.9884 33.5425C72.8998 33.5685 72.8145 33.5592 72.7326 33.5145L71.6512 32.9242Z" fill="white"/>
<path d="M77.3926 84.5027C77.4703 84.4511 77.5545 84.4345 77.6451 84.4528C77.7356 84.4711 77.8067 84.5192 77.8583 84.597L81.5107 90.104C81.5622 90.1818 81.5789 90.266 81.5605 90.3566C81.5422 90.4471 81.4942 90.5182 81.4164 90.5698L80.5064 91.1734C80.4286 91.225 80.3445 91.2416 80.2539 91.2233C80.1633 91.2049 80.0923 91.1569 80.0407 91.0791L79.7776 90.6824C79.7587 91.0085 79.6622 91.3358 79.488 91.6641C79.3111 92.0054 79.0348 92.3064 78.6588 92.5669C77.7825 93.1706 76.9346 93.2346 76.1152 92.759C76.1426 93.1888 76.051 93.6079 75.8404 94.0164C75.6272 94.4379 75.3144 94.7853 74.9022 95.0587C74.4978 95.327 74.0703 95.4762 73.6199 95.5062C73.1616 95.5413 72.7128 95.4302 72.2733 95.1729C71.8313 94.9285 71.4194 94.5185 71.0376 93.9429L68.8168 90.5944C68.7652 90.5166 68.7486 90.4324 68.7669 90.3418C68.7852 90.2513 68.8333 90.1802 68.9111 90.1286L69.8677 89.4941C69.9455 89.4425 70.0296 89.4258 70.1202 89.4442C70.2108 89.4625 70.2818 89.5106 70.3334 89.5884L72.4924 92.8436C72.7245 93.1936 72.9582 93.4362 73.1934 93.5714C73.4338 93.7143 73.6679 93.7718 73.8958 93.7439C74.1237 93.716 74.3426 93.6323 74.5526 93.493C74.7237 93.3795 74.8664 93.2233 74.9808 93.0242C75.0951 92.8251 75.1371 92.5845 75.1067 92.3023C75.0815 92.0278 74.9528 91.7155 74.7206 91.3655L72.5617 88.1103C72.5101 88.0325 72.4935 87.9483 72.5118 87.8578C72.5302 87.7672 72.5782 87.6961 72.656 87.6445L73.6126 87.01C73.6982 86.9532 73.7862 86.934 73.8768 86.9524C73.9596 86.9759 74.0268 87.0265 74.0783 87.1043L76.2373 90.3595C76.4694 90.7095 76.707 90.9496 76.95 91.0796C77.1982 91.2174 77.4362 91.2723 77.6641 91.2443C77.8919 91.2164 78.1031 91.1379 78.2975 91.009C78.4764 90.8903 78.6204 90.7276 78.7296 90.5207C78.844 90.3217 78.8886 90.0849 78.8633 89.8104C78.8381 89.536 78.7094 89.2237 78.4772 88.8737L76.3183 85.6185C76.2667 85.5407 76.2501 85.4565 76.2684 85.366C76.2867 85.2754 76.3348 85.2043 76.4126 85.1527L77.3926 84.5027Z" fill="white"/>
<path d="M62.9158 89.6209C63.6404 89.4409 64.2833 89.4158 64.8444 89.5457C65.3966 89.6778 65.8613 89.9422 66.2388 90.339C66.6071 90.7379 66.8859 91.2409 67.0752 91.8479C67.1247 92.0087 67.1787 92.2068 67.2373 92.4424C67.2958 92.6779 67.3407 92.8783 67.3722 93.0436C67.4912 93.6776 67.4756 94.2537 67.3254 94.7719C67.1685 95.3014 66.8769 95.7537 66.4508 96.1288C66.0156 96.5062 65.4448 96.7827 64.7383 96.9582C64.0318 97.1337 63.4025 97.1554 62.8504 97.0233C62.2892 96.8934 61.8199 96.6301 61.4425 96.2334C61.0582 95.848 60.7704 95.3473 60.5789 94.7312C60.5293 94.5704 60.4753 94.3723 60.4168 94.1368C60.3583 93.9012 60.3133 93.7008 60.2819 93.5355C60.1651 92.9106 60.1807 92.3345 60.3286 91.8072C60.4675 91.2822 60.7545 90.8311 61.1897 90.4537C61.6158 90.0785 62.1911 89.8009 62.9158 89.6209ZM63.2499 90.9661C62.7698 91.0853 62.4356 91.3271 62.2472 91.6912C62.061 92.0645 62.0275 92.5489 62.1465 93.1444C62.1712 93.2826 62.2106 93.4603 62.2646 93.6777C62.3186 93.8951 62.367 94.0706 62.4098 94.2043C62.581 94.7772 62.8361 95.1851 63.1753 95.4278C63.5145 95.6706 63.9241 95.7323 64.4042 95.613C64.8842 95.4938 65.2173 95.2475 65.4035 94.8743C65.5897 94.501 65.6244 94.0212 65.5075 93.4347C65.4828 93.2966 65.4435 93.1188 65.3895 92.9014C65.3355 92.684 65.2871 92.5085 65.2443 92.3749C65.0708 91.7928 64.8145 91.3804 64.4754 91.1377C64.1384 90.904 63.73 90.8468 63.2499 90.9661Z" fill="white"/>
<path d="M56.1499 90.0238C56.2405 90.0462 56.3097 90.0969 56.3575 90.176C56.4053 90.2551 56.418 90.3399 56.3956 90.4305L54.816 96.8327C54.7915 96.9324 54.7396 97.0062 54.6605 97.0539C54.5815 97.1017 54.4966 97.1144 54.406 97.0921L53.305 96.8204C53.2144 96.7981 53.1452 96.7474 53.0975 96.6683C53.0406 96.587 53.0245 96.4965 53.0491 96.3968L53.1866 95.8395C52.9066 96.078 52.5845 96.2341 52.2203 96.3077C51.8471 96.379 51.4429 96.361 51.008 96.2537L50.4507 96.1162C50.3511 96.0916 50.2819 96.0409 50.2431 95.964C50.1954 95.8849 50.1827 95.8001 50.205 95.7095L50.4465 94.7308C50.4688 94.6402 50.5195 94.571 50.5986 94.5232C50.6686 94.4732 50.7535 94.4605 50.8532 94.485L51.9133 94.7466C52.3483 94.8539 52.7183 94.8154 53.0233 94.6311C53.3192 94.4446 53.5198 94.1384 53.6248 93.7125L54.5471 89.9744C54.5695 89.8838 54.6202 89.8146 54.6993 89.7668C54.7783 89.7191 54.8677 89.7075 54.9674 89.7321L56.1499 90.0238Z" fill="white"/>
<path d="M46.8127 87.2365C47.7684 87.6362 48.4109 88.2287 48.7401 89.0139C49.0693 89.7991 49.043 90.7087 48.6611 91.7428C48.6337 91.8325 48.593 91.9419 48.539 92.0711C48.4814 92.2088 48.432 92.3147 48.391 92.3886C48.0865 93.02 47.7061 93.5185 47.2497 93.884C46.7847 94.246 46.2675 94.4545 45.6981 94.5098C45.1251 94.5736 44.5244 94.4741 43.8958 94.2112C43.1984 93.9195 42.6741 93.5282 42.3229 93.0373C41.9682 92.5551 41.7783 92.0052 41.7533 91.3878C41.7247 90.7789 41.8508 90.1386 42.1317 89.467L42.2451 89.1957C42.2811 89.1096 42.3419 89.0491 42.4274 89.014C42.5128 88.9789 42.6029 88.9812 42.6977 89.0208L46.9856 90.8143C46.9856 90.8143 46.991 90.8014 47.0018 90.7756C47.0126 90.7497 47.0216 90.7282 47.0288 90.711C47.1463 90.406 47.2073 90.1028 47.212 89.8012C47.2045 89.5047 47.1299 89.2357 46.988 88.9943C46.8376 88.7492 46.616 88.5655 46.3233 88.4431C46.0822 88.3422 45.8654 88.292 45.673 88.2925C45.477 88.3016 45.3075 88.3318 45.1646 88.3833C45.0217 88.4348 44.9161 88.4817 44.8478 88.524C44.7271 88.5949 44.6416 88.63 44.5914 88.6292C44.5289 88.6334 44.4503 88.6157 44.3556 88.5761L43.2449 88.1115C43.1587 88.0755 43.1007 88.0209 43.0706 87.9476C43.0319 87.8707 43.0331 87.7953 43.0741 87.7214C43.1404 87.5873 43.2838 87.45 43.5044 87.3095C43.7164 87.1655 43.9868 87.051 44.3157 86.966C44.6447 86.881 45.0256 86.8532 45.4584 86.8825C45.8791 86.9168 46.3305 87.0348 46.8127 87.2365ZM46.5319 91.8993L43.6775 90.7054L43.6613 90.7442C43.5209 91.08 43.4544 91.3962 43.4619 91.6927C43.4694 91.9892 43.5502 92.2557 43.7042 92.4921C43.8583 92.7285 44.086 92.9098 44.3874 93.0358C44.6887 93.1619 44.9776 93.1967 45.2541 93.1404C45.5306 93.084 45.777 92.9544 45.9934 92.7515C46.2011 92.545 46.3752 92.2739 46.5157 91.938L46.5319 91.8993Z" fill="white"/>
</svg>
